<?xml version="1.0" encoding="utf-8"?>
<svg xmlns="http://www.w3.org/2000/svg" style="margin: auto; background: rgb(241, 242, 243); display: block; shape-rendering: auto;" width="286" height="108" preserveAspectRatio="xMidYMid">
<style type="text/css">
  text {
    text-anchor: middle; font-size: 63px; opacity: 0;
  }
</style>
<g style="transform-origin:143px 54px;transform:scale(1)">
<g transform="translate(143,54)">
  <g transform="translate(0,0)"><g class="path" style="transform: matrix(1, 0, 0, 1, 0, 0); transform-origin: -101.28px -4.95px; animation: 1.02041s linear -0.561224s infinite normal forwards running tremble-49f2c8b8-c5de-47b9-8539-f7a203c260b6;"><path d="M1.32-42.71L1.32-44.10L34.08-44.10L34.71-31.63L33.58-31.63L33.58-31.63Q30.93-37.99 28.04-40.35L28.04-40.35L28.04-40.35Q25.14-42.71 19.53-42.71L19.53-42.71L17.32-42.71L17.32-23.25L19.47-23.25L19.47-23.25Q22.43-23.25 24.44-25.48L24.44-25.48L24.44-25.48Q26.46-27.72 27.28-31.50L27.28-31.50L28.22-31.50L28.22-12.85L27.15-12.85L27.15-12.85Q26.02-17.58 24.10-19.59L24.10-19.59L24.10-19.59Q22.18-21.61 18.84-21.61L18.84-21.61L17.32-21.61L17.32-1.39L19.72-1.39L19.72-1.39Q25.52-1.39 29.58-4.85L29.58-4.85L29.58-4.85Q33.64-8.32 35.15-13.73L35.15-13.73L36.41-13.73L35.91 0L1.32 0L1.32-1.39L5.04-1.39L5.04-42.71L1.32-42.71" fill="#220b09" stroke="none" stroke-width="none" transform="translate(-120.14498901367188,17.100003865559902)" style="fill: rgb(34, 11, 9);"></path></g><g class="path" style="transform: matrix(1, 0, 0, 1, 0, 0); transform-origin: -61.365px -4.98px; animation: 1.02041s linear -0.44898s infinite normal forwards running tremble-49f2c8b8-c5de-47b9-8539-f7a203c260b6;"><path d="M62.94-43.53L62.94-43.53L62.94-43.53Q53.17-43.53 53.17-24.70L53.17-24.70L53.17-19.72L53.17-19.72Q53.17-10.77 55.75-5.70L55.75-5.70L55.75-5.70Q58.34-0.63 63.38-0.63L63.38-0.63L63.38-0.63Q70.31-0.63 76.10-14.11L76.10-14.11L77.24-14.11L76.80-0.06L76.10-0.06L76.10-0.06Q75.73-0.76 75.41-1.04L75.41-1.04L75.41-1.04Q75.10-1.32 74.50-1.32L74.50-1.32L74.50-1.32Q73.90-1.32 69.93-0.35L69.93-0.35L69.93-0.35Q65.96 0.63 61.87 0.63L61.87 0.63L61.87 0.63Q51.60 0.63 45.96-4.91L45.96-4.91L45.96-4.91Q40.32-10.46 40.32-21.58L40.32-21.58L40.32-21.58Q40.32-32.70 46.21-38.74L46.21-38.74L46.21-38.74Q52.10-44.79 62.05-44.79L62.05-44.79L62.05-44.79Q65.90-44.79 69.58-43.82L69.58-43.82L69.58-43.82Q73.27-42.84 73.90-42.84L73.90-42.84L73.90-42.84Q74.53-42.84 74.84-43.12L74.84-43.12L74.84-43.12Q75.16-43.41 75.54-44.10L75.54-44.10L76.23-44.10L76.73-30.43L75.60-30.43L75.60-30.43Q72.76-36.79 69.77-40.16L69.77-40.16L69.77-40.16Q66.78-43.53 62.94-43.53" fill="#220b09" stroke="none" stroke-width="none" transform="translate(-120.14498901367188,17.100003865559902)" style="fill: rgb(211, 76, 49);"></path></g><g class="path" style="transform: matrix(1, 0, 0, 1, 0, 0); transform-origin: -17.265px -4.98px; animation: 1.02041s linear -0.336735s infinite normal forwards running tremble-49f2c8b8-c5de-47b9-8539-f7a203c260b6;"><path d="M110.88-19.47L110.88-19.47L110.88-24.13L110.88-24.13Q110.88-35.66 109.75-38.68L109.75-38.68L109.75-38.68Q108.49-42.15 106.16-42.97L106.16-42.97L106.16-42.97Q104.83-43.47 102.94-43.47L102.94-43.47L102.94-43.47Q101.05-43.47 99.70-42.97L99.70-42.97L99.70-42.97Q98.34-42.46 97.46-41.20L97.46-41.20L97.46-41.20Q96.58-39.94 96.04-38.56L96.04-38.56L96.04-38.56Q95.51-37.17 95.19-34.65L95.19-34.65L95.19-34.65Q94.81-31.00 94.81-23.88L94.81-23.88L94.81-19.34L94.81-19.34Q94.81-11.65 95.41-8.41L95.41-8.41L95.41-8.41Q96.01-5.17 96.89-3.78L96.89-3.78L96.89-3.78Q98.85-0.69 102.94-0.69L102.94-0.69L102.94-0.69Q107.92-0.69 109.40-4.88L109.40-4.88L109.40-4.88Q110.88-9.07 110.88-19.47zM102.82 0.63L102.82 0.63L102.82 0.63Q92.29 0.63 87.10-5.07L87.10-5.07L87.10-5.07Q81.90-10.77 81.90-21.58L81.90-21.58L81.90-21.58Q81.90-32.38 87.48-38.59L87.48-38.59L87.48-38.59Q93.05-44.79 103.26-44.79L103.26-44.79L103.26-44.79Q113.46-44.79 118.66-38.90L118.66-38.90L118.66-38.90Q123.86-33.01 123.86-22.18L123.86-22.18L123.86-22.18Q123.86-11.34 118.60-5.36L118.60-5.36L118.60-5.36Q113.34 0.63 102.82 0.63" fill="#220b09" stroke="none" stroke-width="none" transform="translate(-120.14498901367188,17.100003865559902)" style="fill: rgb(232, 132, 50);"></path></g><g class="path" style="transform: matrix(1, 0, 0, 1, 0, 0); transform-origin: 25.925px -4.95px; animation: 1.02041s linear -0.22449s infinite normal forwards running tremble-49f2c8b8-c5de-47b9-8539-f7a203c260b6;"><path d="M127.39-42.90L127.39-44.10L145.91-44.10L145.91-44.10Q155.42-44.10 160.08-41.36L160.08-41.36L160.08-41.36Q164.75-38.62 164.75-31.56L164.75-31.56L164.75-31.56Q164.75-23.75 159.07-20.79L159.07-20.79L159.07-20.79Q153.78-18.08 144.27-18.08L144.27-18.08L143.77-18.08L143.77-1.20L151.64-1.20L151.64 0L127.39 0L127.39-1.20L131.48-1.20L131.48-42.90L127.39-42.90zM145.47-42.90L143.77-42.90L143.77-19.28L145.09-19.28L145.09-19.28Q148.87-19.28 150.32-21.86L150.32-21.86L150.32-21.86Q151.77-24.44 151.77-30.24L151.77-30.24L151.77-33.26L151.77-33.26Q151.77-38.62 150.41-40.76L150.41-40.76L150.41-40.76Q149.06-42.90 145.47-42.90L145.47-42.90" fill="#220b09" stroke="none" stroke-width="none" transform="translate(-120.14498901367188,17.100003865559902)" style="fill: rgb(255, 49, 45);"></path></g><g class="path" style="transform: matrix(1, 0, 0, 1, 0, 0); transform-origin: 64.855px -4.95px; animation: 1.02041s linear -0.112245s infinite normal forwards running tremble-49f2c8b8-c5de-47b9-8539-f7a203c260b6;"><path d="M181.25-43.09L189.82-23.37L198.77-43.09L192.40-43.09L192.40-44.10L204.81-44.10L204.81-43.09L200.66-43.09L191.14-22.05L191.14-1.20L194.99-1.20L194.99 0L175.01 0L175.01-1.20L178.86-1.20L178.86-20.85L168.15-43.09L165.19-43.09L165.19-44.10L185.35-44.10L185.35-43.09L181.25-43.09" fill="#220b09" stroke="none" stroke-width="none" transform="translate(-120.14498901367188,17.100003865559902)" style="fill: rgb(245, 192, 55);"></path></g><g class="path" style="transform: matrix(1, 0, 0, 1, 0, 0); transform-origin: 103.915px -4.95px; animation: 1.02041s linear 0s infinite normal forwards running tremble-49f2c8b8-c5de-47b9-8539-f7a203c260b6;"><path d="M206.51-42.71L206.51-44.10L239.27-44.10L239.90-31.63L238.77-31.63L238.77-31.63Q236.12-37.99 233.23-40.35L233.23-40.35L233.23-40.35Q230.33-42.71 224.72-42.71L224.72-42.71L222.52-42.71L222.52-23.25L224.66-23.25L224.66-23.25Q227.62-23.25 229.64-25.48L229.64-25.48L229.64-25.48Q231.65-27.72 232.47-31.50L232.47-31.50L233.42-31.50L233.42-12.85L232.34-12.85L232.34-12.85Q231.21-17.58 229.29-19.59L229.29-19.59L229.29-19.59Q227.37-21.61 224.03-21.61L224.03-21.61L222.52-21.61L222.52-1.39L224.91-1.39L224.91-1.39Q230.71-1.39 234.77-4.85L234.77-4.85L234.77-4.85Q238.83-8.32 240.35-13.73L240.35-13.73L241.61-13.73L241.10 0L206.51 0L206.51-1.39L210.23-1.39L210.23-42.71L206.51-42.71" fill="#220b09" stroke="none" stroke-width="none" transform="translate(-120.14498901367188,17.100003865559902)" style="fill: rgb(232, 151, 136);"></path></g></g>
</g>
</g>
<style id="tremble-49f2c8b8-c5de-47b9-8539-f7a203c260b6" data-anikit="">@keyframes tremble-49f2c8b8-c5de-47b9-8539-f7a203c260b6 {
  0% { transform: translate(0px,0px) rotate(0deg) scale(1) }
  3.33333% { transform: translate(-0.18923px,1.45485px) rotate(0deg) scale(1) }
  6.66667% { transform: translate(-0.84296px,-1.32524px) rotate(0deg) scale(1) }
  10% { transform: translate(0.67971px,1.00422px) rotate(0deg) scale(1) }
  13.33333% { transform: translate(-0.5056px,0.83616px) rotate(0deg) scale(1) }
  16.66667% { transform: translate(1.31368px,-0.51401px) rotate(0deg) scale(1) }
  20% { transform: translate(-1.21184px,1.49193px) rotate(0deg) scale(1) }
  23.33333% { transform: translate(1.09065px,-0.21259px) rotate(0deg) scale(1) }
  26.66667% { transform: translate(-1.49916px,0.56159px) rotate(0deg) scale(1) }
  30% { transform: translate(1.48086px,1.21228px) rotate(0deg) scale(1) }
  33.33333% { transform: translate(-1.43889px,-1.152px) rotate(0deg) scale(1) }
  36.66667% { transform: translate(1.35914px,1.34835px) rotate(0deg) scale(1) }
  40% { transform: translate(-1.42834px,0.3091px) rotate(0deg) scale(1) }
  43.33333% { transform: translate(1.47472px,-1.49889px) rotate(0deg) scale(1) }
  46.66667% { transform: translate(-0.92402px,1.4416px) rotate(0deg) scale(1) }
  50% { transform: translate(1.0657px,-0.75306px) rotate(0deg) scale(1) }
  53.33333% { transform: translate(-1.19035px,-1.07484px) rotate(0deg) scale(1) }
  56.66667% { transform: translate(0.28828px,0.79337px) rotate(0deg) scale(1) }
  60% { transform: translate(-0.47167px,-1.42789px) rotate(0deg) scale(1) }
  63.33333% { transform: translate(0.64753px,-0.09795px) rotate(0deg) scale(1) }
  66.66667% { transform: translate(0.41006px,-0.26292px) rotate(0deg) scale(1) }
  70% { transform: translate(-0.22477px,-1.3683px) rotate(0deg) scale(1) }
  73.33333% { transform: translate(0.03588px,0.92931px) rotate(0deg) scale(1) }
  76.66667% { transform: translate(-1.01937px,-1.18398px) rotate(0deg) scale(1) }
  80% { transform: translate(0.8724px,-0.60494px) rotate(0deg) scale(1) }
  83.33333% { transform: translate(-0.71151px,1.4786px) rotate(0deg) scale(1) }
  86.66667% { transform: translate(1.40734px,-1.49607px) rotate(0deg) scale(1) }
  90% { transform: translate(-1.33062px,0.46957px) rotate(0deg) scale(1) }
  93.33333% { transform: translate(1.23264px,1.26738px) rotate(0deg) scale(1) }
  96.66667% { transform: translate(-1.48975px,-1.03867px) rotate(0deg) scale(1) }
  100% { transform: translate(0,0) rotate(0) scale(1) }
}</style></svg>