<?xml version="1.0" encoding="utf-8"?>
<svg xmlns="http://www.w3.org/2000/svg" style="margin: auto; display: block; shape-rendering: auto; background: none;" width="280" height="250" preserveAspectRatio="xMidYMid">
<style type="text/css">
  text {
    text-anchor: middle; font-size: 36px; opacity: 0;
  }
</style>
<g style="transform-origin: 140px 125px; transform: scale(0.45);">
<g transform="translate(140,125)">
  <g transform="translate(0,0)"><g class="path" style="transform: translate(0px, 0px) rotate(0deg) scale(1, 1) skewX(0deg) skewY(0deg); opacity: 1; transform-origin: -261.12px -8.41227px; animation: 1s linear -0.623333s infinite normal forwards running slide-ltr-c4f6c074-3782-4862-81c8-07e801bc21b2;"><path d="M34.16-1.84L34.16-1.84Q27.04 0.80 20.88 0.80L20.88 0.80L20.88 0.80Q13.92 0.80 9.60-2.88L9.60-2.88L9.60-2.88Q5.28-6.56 5.28-14.64L5.28-14.64L5.28-40.32L5.28-40.32Q5.28-46.40 7-49.52L7-49.52L7-49.52Q8.72-52.64 12.24-54.80L12.24-54.80L12.24-54.80Q15.76-56.80 20.88-56.80L20.88-56.80L20.88-56.80Q27.12-56.80 32.16-54.16L32.16-54.16L30.88-51.12L30.88-51.12Q26.32-52.80 22.24-52.80L22.24-52.80L22.24-52.80Q17.36-52.80 13.56-50.40L13.56-50.40L13.56-50.40Q9.76-48 9.76-41.04L9.76-41.04L9.76-14.80L9.76-14.80Q9.76-9.28 12.64-6.28L12.64-6.28L12.64-6.28Q15.52-3.28 21.28-3.28L21.28-3.28L21.28-3.28Q26.32-3.28 33.20-5.60L33.20-5.60L34.16-1.84" fill="#93dbe9" stroke="none" stroke-width="none" transform="translate(-280.8399658203125,19.587734544542105)" style="fill: rgb(147, 219, 233);"></path></g><g class="path" style="transform: translate(0px, 0px) rotate(0deg) scale(1, 1) skewX(0deg) skewY(0deg); opacity: 1; transform-origin: -227.6px -0.332266px; animation: 1s linear -0.586667s infinite normal forwards running slide-ltr-c4f6c074-3782-4862-81c8-07e801bc21b2;"><path d="M68.64 0L68.64 0Q60 0.88 56.16 0.88L56.16 0.88L56.16 0.88Q47.76 0.88 42.80-2.24L42.80-2.24L42.80-2.24Q37.84-5.36 37.84-13.52L37.84-13.52L37.84-20.16L37.84-20.16Q37.84-28.08 43.36-30.80L43.36-30.80L43.36-30.80Q46-32.16 50.08-32.16L50.08-32.16L50.08-32.16Q53.84-32.16 57.68-30.92L57.68-30.92L57.68-30.92Q61.52-29.68 64.16-27.68L64.16-27.68L64.16-27.68Q64.16-32.08 61.60-34.68L61.60-34.68L61.60-34.68Q59.04-37.28 51.76-37.28L51.76-37.28L52-40.72L52-40.72Q59.68-40.72 63.32-38.28L63.32-38.28L63.32-38.28Q66.96-35.84 67.80-32.48L67.80-32.48L67.80-32.48Q68.64-29.12 68.64-23.84L68.64-23.84L68.64 0zM64.16-24.24L64.16-24.24Q60.88-25.76 57.16-26.88L57.16-26.88L57.16-26.88Q53.44-28 50.32-28L50.32-28L50.32-28Q42.24-28 42.24-19.92L42.24-19.92L42.24-12.96L42.24-12.96Q42.24-7.76 45.84-5.40L45.84-5.40L45.84-5.40Q49.44-3.04 56.08-3.04L56.08-3.04L56.08-3.04Q59.52-3.04 64.16-3.68L64.16-3.68L64.16-24.24" fill="#93dbe9" stroke="none" stroke-width="none" transform="translate(-280.8399658203125,19.587734544542105)" style="fill: rgb(104, 156, 197);"></path></g><g class="path" style="transform: translate(0px, 0px) rotate(0deg) scale(1, 1) skewX(0deg) skewY(0deg); opacity: 1; transform-origin: -198.76px -7.89227px; animation: 1s linear -0.55s infinite normal forwards running slide-ltr-c4f6c074-3782-4862-81c8-07e801bc21b2;"><path d="M83.52 1.04L83.52 1.04Q79.04-0.24 77.04-3.04L77.04-3.04L77.04-3.04Q75.04-5.84 75.04-10.56L75.04-10.56L75.04-56L79.52-56L79.52-40.08L89.12-40.08L87.20-35.84L79.52-35.84L79.52-10.56L79.52-10.56Q79.52-4.16 84.80-2.40L84.80-2.40L83.52 1.04" fill="#93dbe9" stroke="none" stroke-width="none" transform="translate(-280.8399658203125,19.587734544542105)" style="fill: rgb(94, 111, 163);"></path></g><g class="path" style="transform: translate(0px, 0px) rotate(0deg) scale(1, 1) skewX(0deg) skewY(0deg); opacity: 1; transform-origin: -172.08px -0.0122662px; animation: 1s linear -0.513333s infinite normal forwards running slide-ltr-c4f6c074-3782-4862-81c8-07e801bc21b2;"><path d="M119.28 0L119.60-4.08L119.60-4.08Q117.68-1.68 114.76-0.40L114.76-0.40L114.76-0.40Q111.84 0.88 108.88 0.88L108.88 0.88L108.88 0.88Q93.84 0.88 93.84-13.76L93.84-13.76L93.84-40.08L98.32-40.08L98.32-13.20L98.32-13.20Q98.32-8.08 101.16-5.60L101.16-5.60L101.16-5.60Q104.00-3.12 108.88-3.12L108.88-3.12L108.88-3.12Q113.68-3.12 116.44-5.56L116.44-5.56L116.44-5.56Q119.20-8 119.20-13.20L119.20-13.20L119.20-40.08L123.68-40.08L123.68 0L119.28 0" fill="#93dbe9" stroke="none" stroke-width="none" transform="translate(-280.8399658203125,19.587734544542105)" style="fill: rgb(59, 67, 104);"></path></g><g class="path" style="transform: translate(0px, 0px) rotate(0deg) scale(1, 1) skewX(0deg) skewY(0deg); opacity: 1; transform-origin: -139.24px -0.812265px; animation: 1s linear -0.476667s infinite normal forwards running slide-ltr-c4f6c074-3782-4862-81c8-07e801bc21b2;"><path d="M131.60 0L131.60-40.08L136.08-40.08L135.84-37.28L135.84-37.28Q139.60-40.80 145.68-40.80L145.68-40.80L145.68-40.80Q147.84-40.80 151.60-40.08L151.60-40.08L150.40-36L150.40-36Q147.84-36.80 145.04-36.80L145.04-36.80L145.04-36.80Q141.36-36.80 138.72-35.44L138.72-35.44L138.72-35.44Q136.08-34.08 136.08-31.36L136.08-31.36L136.08 0L131.60 0" fill="#93dbe9" stroke="none" stroke-width="none" transform="translate(-280.8399658203125,19.587734544542105)" style="fill: rgb(25, 29, 58);"></path></g><g class="path" style="transform: translate(0px, 0px) rotate(0deg) scale(1, 1) skewX(0deg) skewY(0deg); opacity: 1; transform-origin: -84.08px -8.41227px; animation: 1s linear -0.44s infinite normal forwards running slide-ltr-c4f6c074-3782-4862-81c8-07e801bc21b2;"><path d="M212.16 0L205.76-19.60L187.52-19.60L181.28 0L176.56 0L194.48-56L198.72-56L216.96 0L212.16 0zM196.56-49.04L188.80-24L204.56-24L196.56-49.04" fill="#93dbe9" stroke="none" stroke-width="none" transform="translate(-280.8399658203125,19.587734544542105)" style="fill: rgb(217, 219, 238);"></path></g><g class="path" style="transform: translate(0px, 0px) rotate(0deg) scale(1, 1) skewX(0deg) skewY(0deg); opacity: 1; transform-origin: -42.08px -7.93227px; animation: 1s linear -0.403333s infinite normal forwards running slide-ltr-c4f6c074-3782-4862-81c8-07e801bc21b2;"><path d="M224.00-27.68L224.00-27.68Q224.00-36.08 230.80-39.20L230.80-39.20L230.80-39.20Q234.08-40.72 238.64-40.72L238.64-40.72L238.64-40.72Q241.60-40.72 244.36-40L244.36-40L244.36-40Q247.12-39.28 249.04-37.92L249.04-37.92L249.04-56L253.52-56L253.52 0L249.12 0.40L249.12 0.40Q243.92 0.96 240.96 0.96L240.96 0.96L240.96 0.96Q238.00 0.96 235.40 0.40L235.40 0.40L235.40 0.40Q232.80-0.16 230.24-1.44L230.24-1.44L230.24-1.44Q227.36-2.88 225.68-5.68L225.68-5.68L225.68-5.68Q224.00-8.48 224.00-12.56L224.00-12.56L224.00-27.68zM249.04-34L249.04-34Q246.88-35.20 244.08-35.96L244.08-35.96L244.08-35.96Q241.28-36.72 238.56-36.72L238.56-36.72L238.56-36.72Q234.08-36.72 231.24-34.52L231.24-34.52L231.24-34.52Q228.40-32.32 228.40-27.44L228.40-27.44L228.40-12.48L228.40-12.48Q228.40-3.12 241.28-3.12L241.28-3.12L241.28-3.12Q244.32-3.12 249.04-3.84L249.04-3.84L249.04-34" fill="#93dbe9" stroke="none" stroke-width="none" transform="translate(-280.8399658203125,19.587734544542105)" style="fill: rgb(179, 183, 226);"></path></g><g class="path" style="transform: translate(0px, 0px) rotate(0deg) scale(1, 1) skewX(0deg) skewY(0deg); opacity: 1; transform-origin: -15.76px -34.5323px; animation: 1s linear -0.366667s infinite normal forwards running slide-ltr-c4f6c074-3782-4862-81c8-07e801bc21b2;"><path d="M265.12-51.44L265.12-51.44Q264.08-51.44 263.24-52.28L263.24-52.28L263.24-52.28Q262.40-53.12 262.40-54.16L262.40-54.16L262.40-54.16Q262.40-55.20 263.20-56L263.20-56L263.20-56Q264-56.80 265.12-56.80L265.12-56.80L265.12-56.80Q266.24-56.80 267-56.04L267-56.04L267-56.04Q267.76-55.28 267.76-54.16L267.76-54.16L267.76-54.16Q267.76-53.04 266.96-52.24L266.96-52.24L266.96-52.24Q266.16-51.44 265.12-51.44L265.12-51.44" fill="#93dbe9" stroke="none" stroke-width="none" transform="translate(-280.8399658203125,19.587734544542105)" style="fill: rgb(147, 219, 233);"></path></g><g class="path" style="transform: translate(0px, 0px) rotate(0deg) scale(1, 1) skewX(0deg) skewY(0deg); opacity: 1; transform-origin: -15.8px -0.452267px; animation: 1s linear -0.33s infinite normal forwards running slide-ltr-c4f6c074-3782-4862-81c8-07e801bc21b2;"><path d="M262.80 0L262.80-40.08L267.28-40.08L267.28 0L262.80 0" fill="#93dbe9" stroke="none" stroke-width="none" transform="translate(-280.8399658203125,19.587734544542105)" style="fill: rgb(104, 156, 197);"></path></g><g class="path" style="transform: translate(0px, 0px) rotate(0deg) scale(1, 1) skewX(0deg) skewY(0deg); opacity: 1; transform-origin: 37.52px -8.37226px; animation: 1s linear -0.293333s infinite normal forwards running slide-ltr-c4f6c074-3782-4862-81c8-07e801bc21b2;"><path d="M303.92-14.24L303.92-14.24Q304.16-11.52 305.96-9.04L305.96-9.04L305.96-9.04Q307.76-6.56 310.92-5L310.92-5L310.92-5Q314.08-3.44 318.16-3.44L318.16-3.44L318.16-3.44Q324.32-3.44 328.44-6.20L328.44-6.20L328.44-6.20Q332.56-8.96 332.56-14.96L332.56-14.96L332.56-14.96Q332.56-18.48 330.56-20.84L330.56-20.84L330.56-20.84Q328.56-23.20 325.60-24.60L325.60-24.60L325.60-24.60Q322.64-26 317.52-27.84L317.52-27.84L317.52-27.84Q312.00-29.76 308.68-31.40L308.68-31.40L308.68-31.40Q305.36-33.04 303.08-35.84L303.08-35.84L303.08-35.84Q300.80-38.64 300.80-43.04L300.80-43.04L300.80-43.04Q300.80-46.56 302.80-49.72L302.80-49.72L302.80-49.72Q304.80-52.88 308.84-54.84L308.84-54.84L308.84-54.84Q312.88-56.80 318.80-56.80L318.80-56.80L318.80-56.80Q322.72-56.80 325.28-56.24L325.28-56.24L325.28-56.24Q327.84-55.68 330.48-54.40L330.48-54.40L329.12-50.16L329.12-50.16Q324.56-52.48 318.96-52.48L318.96-52.48L318.96-52.48Q312.80-52.48 309.12-49.92L309.12-49.92L309.12-49.92Q305.44-47.36 305.44-42.80L305.44-42.80L305.44-42.80Q305.44-39.92 307.28-37.96L307.28-37.96L307.28-37.96Q309.12-36 311.80-34.80L311.80-34.80L311.80-34.80Q314.48-33.60 319.28-31.92L319.28-31.92L319.28-31.92Q325.12-29.92 328.72-28.20L328.72-28.20L328.72-28.20Q332.32-26.48 334.84-23.32L334.84-23.32L334.84-23.32Q337.36-20.16 337.36-15.36L337.36-15.36L337.36-15.36Q337.36-8 332.68-3.56L332.68-3.56L332.68-3.56Q328.00 0.88 318.24 0.88L318.24 0.88L318.24 0.88Q312.32 0.88 308.12-1.32L308.12-1.32L308.12-1.32Q303.92-3.52 301.72-7L301.72-7L301.72-7Q299.52-10.48 299.36-14.24L299.36-14.24L303.92-14.24" fill="#93dbe9" stroke="none" stroke-width="none" transform="translate(-280.8399658203125,19.587734544542105)" style="fill: rgb(94, 111, 163);"></path></g><g class="path" style="transform: translate(0px, 0px) rotate(0deg) scale(1, 1) skewX(0deg) skewY(0deg); opacity: 1; transform-origin: 78.24px -0.0122662px; animation: 1s linear -0.256667s infinite normal forwards running slide-ltr-c4f6c074-3782-4862-81c8-07e801bc21b2;"><path d="M369.60 0L369.92-4.08L369.92-4.08Q368-1.68 365.08-0.40L365.08-0.40L365.08-0.40Q362.16 0.88 359.20 0.88L359.20 0.88L359.20 0.88Q344.16 0.88 344.16-13.76L344.16-13.76L344.16-40.08L348.64-40.08L348.64-13.20L348.64-13.20Q348.64-8.08 351.48-5.60L351.48-5.60L351.48-5.60Q354.32-3.12 359.20-3.12L359.20-3.12L359.20-3.12Q364-3.12 366.76-5.56L366.76-5.56L366.76-5.56Q369.52-8 369.52-13.20L369.52-13.20L369.52-40.08L374-40.08L374 0L369.60 0" fill="#93dbe9" stroke="none" stroke-width="none" transform="translate(-280.8399658203125,19.587734544542105)" style="fill: rgb(59, 67, 104);"></path></g><g class="path" style="transform: translate(0px, 0px) rotate(0deg) scale(1, 1) skewX(0deg) skewY(0deg); opacity: 1; transform-origin: 116.24px -8.41227px; animation: 1s linear -0.22s infinite normal forwards running slide-ltr-c4f6c074-3782-4862-81c8-07e801bc21b2;"><path d="M406.40 0L391.04-25.36L386.88-21.76L386.88 0L382.40 0L382.40-56L386.88-56L386.88-26.80L402.88-41.60L406.08-38.48L394.24-28.16L394.24-28.16Q399.68-19.12 411.76 0L411.76 0L406.40 0" fill="#93dbe9" stroke="none" stroke-width="none" transform="translate(-280.8399658203125,19.587734544542105)" style="fill: rgb(25, 29, 58);"></path></g><g class="path" style="transform: translate(0px, 0px) rotate(0deg) scale(1, 1) skewX(0deg) skewY(0deg); opacity: 1; transform-origin: 145.8px -0.812265px; animation: 1s linear -0.183333s infinite normal forwards running slide-ltr-c4f6c074-3782-4862-81c8-07e801bc21b2;"><path d="M416.64 0L416.64-40.08L421.12-40.08L420.88-37.28L420.88-37.28Q424.64-40.80 430.72-40.80L430.72-40.80L430.72-40.80Q432.88-40.80 436.64-40.08L436.64-40.08L435.44-36L435.44-36Q432.88-36.80 430.08-36.80L430.08-36.80L430.08-36.80Q426.40-36.80 423.76-35.44L423.76-35.44L423.76-35.44Q421.12-34.08 421.12-31.36L421.12-31.36L421.12 0L416.64 0" fill="#93dbe9" stroke="none" stroke-width="none" transform="translate(-280.8399658203125,19.587734544542105)" style="fill: rgb(217, 219, 238);"></path></g><g class="path" style="transform: translate(0px, 0px) rotate(0deg) scale(1, 1) skewX(0deg) skewY(0deg); opacity: 1; transform-origin: 166.48px -34.5323px; animation: 1s linear -0.146667s infinite normal forwards running slide-ltr-c4f6c074-3782-4862-81c8-07e801bc21b2;"><path d="M447.36-51.44L447.36-51.44Q446.32-51.44 445.48-52.28L445.48-52.28L445.48-52.28Q444.64-53.12 444.64-54.16L444.64-54.16L444.64-54.16Q444.64-55.20 445.44-56L445.44-56L445.44-56Q446.24-56.80 447.36-56.80L447.36-56.80L447.36-56.80Q448.48-56.80 449.24-56.04L449.24-56.04L449.24-56.04Q450-55.28 450-54.16L450-54.16L450-54.16Q450-53.04 449.20-52.24L449.20-52.24L449.20-52.24Q448.40-51.44 447.36-51.44L447.36-51.44" fill="#93dbe9" stroke="none" stroke-width="none" transform="translate(-280.8399658203125,19.587734544542105)" style="fill: rgb(179, 183, 226);"></path></g><g class="path" style="transform: translate(0px, 0px) rotate(0deg) scale(1, 1) skewX(0deg) skewY(0deg); opacity: 1; transform-origin: 166.44px -0.452267px; animation: 1s linear -0.11s infinite normal forwards running slide-ltr-c4f6c074-3782-4862-81c8-07e801bc21b2;"><path d="M445.04 0L445.04-40.08L449.52-40.08L449.52 0L445.04 0" fill="#93dbe9" stroke="none" stroke-width="none" transform="translate(-280.8399658203125,19.587734544542105)" style="fill: rgb(147, 219, 233);"></path></g><g class="path" style="transform: translate(0px, 0px) rotate(0deg) scale(1, 1) skewX(0deg) skewY(0deg); opacity: 1; transform-origin: 192.84px -0.332266px; animation: 1s linear -0.0733333s infinite normal forwards running slide-ltr-c4f6c074-3782-4862-81c8-07e801bc21b2;"><path d="M463.52-10.16L463.52-10.16Q464-6.56 467.12-4.76L467.12-4.76L467.12-4.76Q470.24-2.96 474.08-2.96L474.08-2.96L474.08-2.96Q477.68-2.96 480.64-4.60L480.64-4.60L480.64-4.60Q483.60-6.24 483.60-9.92L483.60-9.92L483.60-9.92Q483.60-12.32 482.20-13.88L482.20-13.88L482.20-13.88Q480.80-15.44 478.72-16.40L478.72-16.40L478.72-16.40Q476.64-17.36 473.12-18.48L473.12-18.48L473.12-18.48Q469.20-19.76 466.72-20.88L466.72-20.88L466.72-20.88Q464.24-22 462.40-24.04L462.40-24.04L462.40-24.04Q460.56-26.08 460.24-29.20L460.24-29.20L460.16-30.16L460.16-30.16Q460.16-32.80 461.64-35.32L461.64-35.32L461.64-35.32Q463.12-37.84 466.20-39.44L466.20-39.44L466.20-39.44Q469.28-41.04 473.92-41.04L473.92-41.04L473.92-41.04Q476.48-41.04 478.44-40.52L478.44-40.52L478.44-40.52Q480.40-40 481.52-39.44L481.52-39.44L481.52-39.44Q482.64-38.88 482.88-38.72L482.88-38.72L481.36-35.04L481.36-35.04Q481.12-35.20 480.20-35.68L480.20-35.68L480.20-35.68Q479.28-36.16 477.60-36.64L477.60-36.64L477.60-36.64Q475.92-37.12 473.92-37.12L473.92-37.12L473.92-37.12Q470.08-37.12 467.36-35.32L467.36-35.32L467.36-35.32Q464.64-33.52 464.64-30.32L464.64-30.32L464.64-30.32Q464.64-27.28 467.12-25.68L467.12-25.68L467.12-25.68Q469.60-24.08 474.72-22.48L474.72-22.48L474.72-22.48Q479.04-21.04 481.68-19.76L481.68-19.76L481.68-19.76Q484.32-18.48 486.20-16.12L486.20-16.12L486.20-16.12Q488.08-13.76 488.08-10L488.08-10L488.08-10Q488.08-5.20 484.52-2L484.52-2L484.52-2Q480.96 1.20 474.08 1.20L474.08 1.20L474.08 1.20Q469.52 1.20 466.20-0.36L466.20-0.36L466.20-0.36Q462.88-1.92 461.16-4.48L461.16-4.48L461.16-4.48Q459.44-7.04 459.28-10.16L459.28-10.16L463.52-10.16" fill="#93dbe9" stroke="none" stroke-width="none" transform="translate(-280.8399658203125,19.587734544542105)" style="fill: rgb(104, 156, 197);"></path></g><g class="path" style="transform: translate(0px, 0px) rotate(0deg) scale(1, 1) skewX(0deg) skewY(0deg); opacity: 1; transform-origin: 229.92px -0.772266px; animation: 1s linear -0.0366667s infinite normal forwards running slide-ltr-c4f6c074-3782-4862-81c8-07e801bc21b2;"><path d="M521.12 0L521.12-27.44L521.12-27.44Q521.12-32.32 518.28-34.52L518.28-34.52L518.28-34.52Q515.44-36.72 510.96-36.72L510.96-36.72L510.96-36.72Q508.24-36.72 505.44-35.96L505.44-35.96L505.44-35.96Q502.64-35.20 500.48-34L500.48-34L500.48 0L496 0L496-40.08L500.48-40.08L500.16-37.36L500.16-37.36Q502.08-39.04 505.04-39.88L505.04-39.88L505.04-39.88Q508-40.72 511.20-40.72L511.20-40.72L511.20-40.72Q515.60-40.72 518.72-39.28L518.72-39.28L518.72-39.28Q521.92-37.84 523.72-34.96L523.72-34.96L523.72-34.96Q525.52-32.08 525.52-27.68L525.52-27.68L525.52 0L521.12 0" fill="#93dbe9" stroke="none" stroke-width="none" transform="translate(-280.8399658203125,19.587734544542105)" style="fill: rgb(94, 111, 163);"></path></g><g class="path" style="transform: translate(0px, 0px) rotate(0deg) scale(1, 1) skewX(0deg) skewY(0deg); opacity: 1; transform-origin: 271.2px -0.492266px; animation: 1s linear 0s infinite normal forwards running slide-ltr-c4f6c074-3782-4862-81c8-07e801bc21b2;"><path d="M566.96-14.72L566.96-14.72Q566.96-8 563.28-3.60L563.28-3.60L563.28-3.60Q559.60 0.80 552.16 0.80L552.16 0.80L552.16 0.80Q544.72 0.80 540.92-3.64L540.92-3.64L540.92-3.64Q537.12-8.08 537.12-14.72L537.12-14.72L537.12-25.28L537.12-25.28Q537.12-32.88 541-36.92L541-36.92L541-36.92Q544.88-40.96 552.16-40.96L552.16-40.96L552.16-40.96Q559.12-40.96 563.04-36.76L563.04-36.76L563.04-36.76Q566.96-32.56 566.96-25.28L566.96-25.28L566.96-14.72zM562.48-25.28L562.48-25.28Q562.48-31.28 559.72-34.08L559.72-34.08L559.72-34.08Q556.96-36.88 552.16-36.88L552.16-36.88L552.16-36.88Q547.20-36.88 544.40-34.08L544.40-34.08L544.40-34.08Q541.60-31.28 541.60-25.28L541.60-25.28L541.60-13.92L541.60-13.92Q541.60-9.12 544.44-6.16L544.44-6.16L544.44-6.16Q547.28-3.20 552.16-3.20L552.16-3.20L552.16-3.20Q557.12-3.20 559.80-6.12L559.80-6.12L559.80-6.12Q562.48-9.04 562.48-13.92L562.48-13.92L562.48-25.28" fill="#93dbe9" stroke="none" stroke-width="none" transform="translate(-280.8399658203125,19.587734544542105)" style="fill: rgb(59, 67, 104);"></path></g></g>
</g>
</g>
<style id="slide-ltr-c4f6c074-3782-4862-81c8-07e801bc21b2" data-anikit="">@keyframes slide-ltr-c4f6c074-3782-4862-81c8-07e801bc21b2
{
  0% {
    animation-timing-function: cubic-bezier(0.4652,0.1051,0.774,0.6426);
    transform: translate(0px,0px) rotate(0deg) scale(1,1) skewX(0deg) skewY(0deg);
    opacity: 1;
  }
  22.5% {
    animation-timing-function: cubic-bezier(0.4142,0.3131,0.7623,0.6513);
    transform: translate(47.8px,0px) rotate(0deg) scale(1,1) skewX(0deg) skewY(0deg);
    opacity: 1;
  }
  45% {
    animation-timing-function: cubic-bezier(0.3615,0.331,0.9646,1.3461);
    transform: translate(147.8px,0px) rotate(0deg) scale(1,1) skewX(0deg) skewY(0deg);
    opacity: 1;
  }
  47.5% {
    animation-timing-function: cubic-bezier(0.7006,0.3332,0.6667,0.6667);
    transform: translate(165.6px,0px) rotate(0deg) scale(1,1) skewX(0deg) skewY(0deg);
    opacity: 0;
  }
  50% {
    animation-timing-function: cubic-bezier(0.1604,0.3176,-0.0218,0.6965);
    transform: translate(-200px,0px) rotate(0deg) scale(1,1) skewX(0deg) skewY(0deg);
    opacity: 0;
  }
  51% {
    animation-timing-function: cubic-bezier(0.1983,0.3529,0.5263,0.6945);
    transform: translate(-179.8px,0px) rotate(0deg) scale(1,1) skewX(0deg) skewY(0deg);
    opacity: 0;
  }
  80.4% {
    animation-timing-function: cubic-bezier(0.2342,0.3708,0.5422,0.9065);
    transform: translate(-38.4px,0px) rotate(0deg) scale(1,1) skewX(0deg) skewY(0deg);
    opacity: 1;
  }
  100% {
    transform: translate(0px,0px) rotate(0deg) scale(1,1) skewX(0deg) skewY(0deg);
    opacity: 1;
  }
}</style></svg>
