<?xml version="1.0" encoding="utf-8"?>
<svg xmlns="http://www.w3.org/2000/svg" style="margin: auto; display: block; shape-rendering: auto; background: none;" width="1286" height="86" preserveAspectRatio="xMidYMid">
<style type="text/css">
  text {
    text-anchor: middle; font-size: 34px; opacity: 0;
  }
</style>
<g style="transform-origin: 193px 43px; transform: scale(1);">
<g transform="translate(700,43)">
  <g transform="translate(0,0)"><g class="path" style="transform: translate(0px, 0px) rotate(0deg) scale(1, 1) skewX(0deg) skewY(0deg); opacity: 1; transform-origin: -252.105px -8.2856px; animation: 2.43902s linear -1.52503s infinite normal forwards running slide-ltr-d62914b1-e292-439b-b6ce-e129d12fcb70;"><path d="M37.11-12.97L37.11-12.97L37.11-12.97Q37.11-10.12 36.04-7.62L36.04-7.62L36.04-7.62Q34.96-5.12 33.09-3.24L33.09-3.24L33.09-3.24Q31.21-1.37 28.71-0.29L28.71-0.29L28.71-0.29Q26.21 0.78 23.36 0.78L23.36 0.78L19.38 0.78L19.38 0.78Q16.52 0.78 14.00-0.29L14.00-0.29L14.00-0.29Q11.48-1.37 9.61-3.24L9.61-3.24L9.61-3.24Q7.73-5.12 6.66-7.62L6.66-7.62L6.66-7.62Q5.59-10.12 5.59-12.97L5.59-12.97L5.59-43.05L5.59-43.05Q5.59-45.90 6.66-48.40L6.66-48.40L6.66-48.40Q7.73-50.90 9.61-52.77L9.61-52.77L9.61-52.77Q11.48-54.65 14.00-55.72L14.00-55.72L14.00-55.72Q16.52-56.80 19.38-56.80L19.38-56.80L23.36-56.80L23.36-56.80Q26.21-56.80 28.71-55.72L28.71-55.72L28.71-55.72Q31.21-54.65 33.09-52.77L33.09-52.77L33.09-52.77Q34.96-50.90 36.04-48.40L36.04-48.40L36.04-48.40Q37.11-45.90 37.11-43.05L37.11-43.05L37.11-40.78L32.07-40L32.07-43.05L32.07-43.05Q32.07-44.92 31.37-46.54L31.37-46.54L31.37-46.54Q30.66-48.16 29.45-49.38L29.45-49.38L29.45-49.38Q28.24-50.59 26.62-51.29L26.62-51.29L26.62-51.29Q25-51.99 23.13-51.99L23.13-51.99L19.61-51.99L19.61-51.99Q17.73-51.99 16.11-51.29L16.11-51.29L16.11-51.29Q14.49-50.59 13.26-49.38L13.26-49.38L13.26-49.38Q12.03-48.16 11.33-46.54L11.33-46.54L11.33-46.54Q10.63-44.92 10.63-43.05L10.63-43.05L10.63-12.97L10.63-12.97Q10.63-11.09 11.33-9.47L11.33-9.47L11.33-9.47Q12.03-7.85 13.26-6.62L13.26-6.62L13.26-6.62Q14.49-5.39 16.11-4.69L16.11-4.69L16.11-4.69Q17.73-3.98 19.61-3.98L19.61-3.98L23.13-3.98L23.13-3.98Q25-3.98 26.62-4.69L26.62-4.69L26.62-4.69Q28.24-5.39 29.45-6.62L29.45-6.62L29.45-6.62Q30.66-7.85 31.37-9.47L31.37-9.47L31.37-9.47Q32.07-11.09 32.07-12.97L32.07-12.97L32.07-16.02L37.11-15.20L37.11-12.97" fill="#85a2b6" stroke="none" stroke-width="none" transform="translate(-273.4549865722656,19.724400939941404)" style="fill: rgb(133, 162, 182);"></path></g><g class="path" style="transform: translate(0px, 0px) rotate(0deg) scale(1, 1) skewX(0deg) skewY(0deg); opacity: 1; transform-origin: -213.375px -0.275599px; animation: 2.43902s linear -1.44031s infinite normal forwards running slide-ltr-d62914b1-e292-439b-b6ce-e129d12fcb70;"><path d="M73.44 0L71.84 0L69.18-3.98L69.18-3.98Q67.54-1.84 65.08-0.53L65.08-0.53L65.08-0.53Q62.62 0.78 59.69 0.78L59.69 0.78L58.48 0.78L58.48 0.78Q56.05 0.78 53.91-0.14L53.91-0.14L53.91-0.14Q51.76-1.05 50.16-2.66L50.16-2.66L50.16-2.66Q48.55-4.26 47.64-6.41L47.64-6.41L47.64-6.41Q46.72-8.55 46.72-10.98L46.72-10.98L46.72-11.37L46.72-11.37Q46.72-13.79 47.64-15.94L47.64-15.94L47.64-15.94Q48.55-18.09 50.16-19.69L50.16-19.69L50.16-19.69Q51.76-21.29 53.91-22.21L53.91-22.21L53.91-22.21Q56.05-23.13 58.48-23.13L58.48-23.13L68.63-23.13L68.63-29.30L68.63-29.30Q68.63-30.74 68.09-32.01L68.09-32.01L68.09-32.01Q67.54-33.28 66.60-34.22L66.60-34.22L66.60-34.22Q65.66-35.16 64.39-35.70L64.39-35.70L64.39-35.70Q63.13-36.25 61.68-36.25L61.68-36.25L58.87-36.25L58.87-36.25Q57.42-36.25 56.15-35.70L56.15-35.70L56.15-35.70Q54.88-35.16 53.95-34.22L53.95-34.22L53.95-34.22Q53.01-33.28 52.46-32.01L52.46-32.01L52.46-32.01Q51.91-30.74 51.91-29.30L51.91-29.30L51.91-27.85L47.11-28.63L47.11-29.02L47.11-29.02Q47.11-31.45 48.03-33.59L48.03-33.59L48.03-33.59Q48.95-35.74 50.55-37.34L50.55-37.34L50.55-37.34Q52.15-38.95 54.30-39.86L54.30-39.86L54.30-39.86Q56.45-40.78 58.87-40.78L58.87-40.78L61.68-40.78L61.68-40.78Q64.10-40.78 66.25-39.86L66.25-39.86L66.25-39.86Q68.40-38.95 70-37.34L70-37.34L70-37.34Q71.60-35.74 72.52-33.59L72.52-33.59L72.52-33.59Q73.44-31.45 73.44-29.02L73.44-29.02L73.44 0zM68.63-10.70L68.63-19.38L58.48-19.38L58.48-19.38Q57.03-19.38 55.76-18.83L55.76-18.83L55.76-18.83Q54.49-18.28 53.55-17.32L53.55-17.32L53.55-17.32Q52.62-16.37 52.07-15.10L52.07-15.10L52.07-15.10Q51.52-13.83 51.52-12.38L51.52-12.38L51.52-10.70L51.52-10.70Q51.52-9.26 52.07-7.99L52.07-7.99L52.07-7.99Q52.62-6.72 53.55-5.78L53.55-5.78L53.55-5.78Q54.49-4.84 55.76-4.30L55.76-4.30L55.76-4.30Q57.03-3.75 58.48-3.75L58.48-3.75L61.68-3.75L61.68-3.75Q63.13-3.75 64.39-4.30L64.39-4.30L64.39-4.30Q65.66-4.84 66.60-5.78L66.60-5.78L66.60-5.78Q67.54-6.72 68.09-7.99L68.09-7.99L68.09-7.99Q68.63-9.26 68.63-10.70L68.63-10.70" fill="#85a2b6" stroke="none" stroke-width="none" transform="translate(-273.4549865722656,19.724400939941404)" style="fill: rgb(133, 162, 182);"></path></g><g class="path" style="transform: translate(0px, 0px) rotate(0deg) scale(1, 1) skewX(0deg) skewY(0deg); opacity: 1; transform-origin: -182.54px -5.4706px; animation: 2.43902s linear -1.35558s infinite normal forwards running slide-ltr-d62914b1-e292-439b-b6ce-e129d12fcb70;"><path d="M101.99 0L97.62 0L97.62 0Q95.43 0 93.50-0.82L93.50-0.82L93.50-0.82Q91.56-1.64 90.14-3.09L90.14-3.09L90.14-3.09Q88.71-4.53 87.87-6.45L87.87-6.45L87.87-6.45Q87.03-8.36 87.03-10.55L87.03-10.55L87.03-35.43L79.84-35.43L79.84-40L87.03-40L87.03-49.61L91.84-50.39L91.84-40L101.99-40L101.99-35.43L91.84-35.43L91.84-10.31L91.84-10.31Q91.84-9.10 92.29-8.07L92.29-8.07L92.29-8.07Q92.73-7.03 93.52-6.25L93.52-6.25L93.52-6.25Q94.30-5.47 95.35-5.02L95.35-5.02L95.35-5.02Q96.41-4.57 97.62-4.57L97.62-4.57L101.99-4.57L101.99 0" fill="#85a2b6" stroke="none" stroke-width="none" transform="translate(-273.4549865722656,19.724400939941404)" style="fill: rgb(133, 162, 182);"></path></g><g class="path" style="transform: translate(0px, 0px) rotate(0deg) scale(1, 1) skewX(0deg) skewY(0deg); opacity: 1; transform-origin: -149.275px 0.114401px; animation: 2.43902s linear -1.27086s infinite normal forwards running slide-ltr-d62914b1-e292-439b-b6ce-e129d12fcb70;"><path d="M137.54 0L135.94 0L133.28-4.06L133.28-4.06Q131.64-1.84 129.18-0.53L129.18-0.53L129.18-0.53Q126.72 0.78 123.79 0.78L123.79 0.78L122.58 0.78L122.58 0.78Q120.16 0.78 118.01-0.14L118.01-0.14L118.01-0.14Q115.86-1.05 114.26-2.66L114.26-2.66L114.26-2.66Q112.66-4.26 111.74-6.41L111.74-6.41L111.74-6.41Q110.82-8.55 110.82-10.98L110.82-10.98L110.82-40L115.63-40L115.63-10.70L115.63-10.70Q115.63-9.26 116.17-7.99L116.17-7.99L116.17-7.99Q116.72-6.72 117.66-5.78L117.66-5.78L117.66-5.78Q118.59-4.84 119.86-4.30L119.86-4.30L119.86-4.30Q121.13-3.75 122.58-3.75L122.58-3.75L125.78-3.75L125.78-3.75Q127.23-3.75 128.50-4.30L128.50-4.30L128.50-4.30Q129.77-4.84 130.70-5.78L130.70-5.78L130.70-5.78Q131.64-6.72 132.19-7.99L132.19-7.99L132.19-7.99Q132.73-9.26 132.73-10.70L132.73-10.70L132.73-40L137.54-40L137.54 0" fill="#85a2b6" stroke="none" stroke-width="none" transform="translate(-273.4549865722656,19.724400939941404)" style="fill: rgb(133, 162, 182);"></path></g><g class="path" style="transform: translate(0px, 0px) rotate(0deg) scale(1, 1) skewX(0deg) skewY(0deg); opacity: 1; transform-origin: -118.025px -0.665598px; animation: 2.43902s linear -1.18614s infinite normal forwards running slide-ltr-d62914b1-e292-439b-b6ce-e129d12fcb70;"><path d="M163.71-35.43L158.91-35.43L158.91-35.43Q157.46-35.43 156.19-34.88L156.19-34.88L156.19-34.88Q154.92-34.34 153.98-33.40L153.98-33.40L153.98-33.40Q153.05-32.46 152.50-31.19L152.50-31.19L152.50-31.19Q151.95-29.92 151.95-28.48L151.95-28.48L151.95 0L147.15 0L147.15-40L148.75-40L151.37-35.94L151.37-35.94Q153.01-38.16 155.49-39.47L155.49-39.47L155.49-39.47Q157.97-40.78 160.90-40.78L160.90-40.78L163.71-40.78L163.71-35.43" fill="#85a2b6" stroke="none" stroke-width="none" transform="translate(-273.4549865722656,19.724400939941404)" style="fill: rgb(133, 162, 182);"></path></g><g class="path" style="transform: translate(0px, 0px) rotate(0deg) scale(1, 1) skewX(0deg) skewY(0deg); opacity: 1; transform-origin: -71.19px -8.2856px; animation: 2.43902s linear -1.10141s infinite normal forwards running slide-ltr-d62914b1-e292-439b-b6ce-e129d12fcb70;"><path d="M214.84 0L211.13-13.05L193.40-13.05L189.73 0L184.49 0L200.90-56.02L203.55-56.02L220.04 0L214.84 0zM202.11-43.67L194.77-17.85L209.80-17.85L202.42-43.67L202.27-45.74L202.11-43.67" fill="#85a2b6" stroke="none" stroke-width="none" transform="translate(-273.4549865722656,19.724400939941404)" style="fill: rgb(133, 162, 182);"></path></g><g class="path" style="transform: translate(0px, 0px) rotate(0deg) scale(1, 1) skewX(0deg) skewY(0deg); opacity: 1; transform-origin: -34.47px -7.8956px; animation: 2.43902s linear -1.01669s infinite normal forwards running slide-ltr-d62914b1-e292-439b-b6ce-e129d12fcb70;"><path d="M252.34 0L250.74 0L248.09-4.06L248.09-4.06Q246.45-1.84 243.98-0.53L243.98-0.53L243.98-0.53Q241.52 0.78 238.59 0.78L238.59 0.78L237.38 0.78L237.38 0.78Q234.96 0.78 232.81-0.14L232.81-0.14L232.81-0.14Q230.66-1.05 229.06-2.66L229.06-2.66L229.06-2.66Q227.46-4.26 226.54-6.41L226.54-6.41L226.54-6.41Q225.63-8.55 225.63-10.98L225.63-10.98L225.63-29.02L225.63-29.02Q225.63-31.45 226.54-33.59L226.54-33.59L226.54-33.59Q227.46-35.74 229.06-37.34L229.06-37.34L229.06-37.34Q230.66-38.95 232.81-39.86L232.81-39.86L232.81-39.86Q234.96-40.78 237.38-40.78L237.38-40.78L238.59-40.78L238.59-40.78Q241.29-40.78 243.59-39.69L243.59-39.69L243.59-39.69Q245.90-38.59 247.54-36.64L247.54-36.64L247.54-56.02L252.34-56.02L252.34 0zM247.54-10.70L247.54-29.30L247.54-29.30Q247.54-30.74 246.99-32.01L246.99-32.01L246.99-32.01Q246.45-33.28 245.51-34.22L245.51-34.22L245.51-34.22Q244.57-35.16 243.30-35.70L243.30-35.70L243.30-35.70Q242.03-36.25 240.59-36.25L240.59-36.25L237.38-36.25L237.38-36.25Q235.94-36.25 234.67-35.70L234.67-35.70L234.67-35.70Q233.40-35.16 232.46-34.22L232.46-34.22L232.46-34.22Q231.52-33.28 230.98-32.01L230.98-32.01L230.98-32.01Q230.43-30.74 230.43-29.30L230.43-29.30L230.43-10.70L230.43-10.70Q230.43-9.26 230.98-7.99L230.98-7.99L230.98-7.99Q231.52-6.72 232.46-5.78L232.46-5.78L232.46-5.78Q233.40-4.84 234.67-4.30L234.67-4.30L234.67-4.30Q235.94-3.75 237.38-3.75L237.38-3.75L240.59-3.75L240.59-3.75Q242.03-3.75 243.30-4.30L243.30-4.30L243.30-4.30Q244.57-4.84 245.51-5.78L245.51-5.78L245.51-5.78Q246.45-6.72 246.99-7.99L246.99-7.99L246.99-7.99Q247.54-9.26 247.54-10.70L247.54-10.70" fill="#85a2b6" stroke="none" stroke-width="none" transform="translate(-273.4549865722656,19.724400939941404)" style="fill: rgb(133, 162, 182);"></path></g><g class="path" style="transform: translate(0px, 0px) rotate(0deg) scale(1, 1) skewX(0deg) skewY(0deg); opacity: 1; transform-origin: -7.49998px -33.0906px; animation: 2.43902s linear -0.931964s infinite normal forwards running slide-ltr-d62914b1-e292-439b-b6ce-e129d12fcb70;"><path d="M268.75-49.61L263.16-49.61L263.16-56.02L268.75-56.02L268.75-49.61" fill="#85a2b6" stroke="none" stroke-width="none" transform="translate(-273.4549865722656,19.724400939941404)" style="fill: rgb(133, 162, 182);"></path></g><g class="path" style="transform: translate(0px, 0px) rotate(0deg) scale(1, 1) skewX(0deg) skewY(0deg); opacity: 1; transform-origin: -7.5px -0.275599px; animation: 2.43902s linear -0.84724s infinite normal forwards running slide-ltr-d62914b1-e292-439b-b6ce-e129d12fcb70;"><path d="M268.36 0L263.55 0L263.55-40L268.36-40L268.36 0" fill="#85a2b6" stroke="none" stroke-width="none" transform="translate(-273.4549865722656,19.724400939941404)" style="fill: rgb(133, 162, 182);"></path></g><g class="path" style="transform: translate(0px, 0px) rotate(0deg) scale(1, 1) skewX(0deg) skewY(0deg); opacity: 1; transform-origin: 40.665px -8.2856px; animation: 2.43902s linear -0.762516s infinite normal forwards running slide-ltr-d62914b1-e292-439b-b6ce-e129d12fcb70;"><path d="M330.27-14.65L330.27-12.97L330.27-12.97Q330.27-10.12 329.12-7.62L329.12-7.62L329.12-7.62Q327.97-5.12 326.04-3.24L326.04-3.24L326.04-3.24Q324.10-1.37 321.54-0.29L321.54-0.29L321.54-0.29Q318.98 0.78 316.13 0.78L316.13 0.78L312.11 0.78L312.11 0.78Q309.26 0.78 306.70-0.29L306.70-0.29L306.70-0.29Q304.14-1.37 302.21-3.24L302.21-3.24L302.21-3.24Q300.27-5.12 299.12-7.62L299.12-7.62L299.12-7.62Q297.97-10.12 297.97-12.97L297.97-12.97L297.97-15.20L303.01-16.02L303.01-12.97L303.01-12.97Q303.01-11.09 303.77-9.47L303.77-9.47L303.77-9.47Q304.53-7.85 305.82-6.62L305.82-6.62L305.82-6.62Q307.11-5.39 308.81-4.69L308.81-4.69L308.81-4.69Q310.51-3.98 312.38-3.98L312.38-3.98L315.90-3.98L315.90-3.98Q317.77-3.98 319.45-4.69L319.45-4.69L319.45-4.69Q321.13-5.39 322.42-6.62L322.42-6.62L322.42-6.62Q323.71-7.85 324.47-9.47L324.47-9.47L324.47-9.47Q325.23-11.09 325.23-12.97L325.23-12.97L325.23-14.65L325.23-14.65Q325.23-17.54 324.10-19.45L324.10-19.45L324.10-19.45Q322.97-21.37 321.09-22.71L321.09-22.71L321.09-22.71Q319.22-24.06 316.86-25L316.86-25L316.86-25Q314.49-25.94 311.99-26.88L311.99-26.88L311.99-26.88Q309.49-27.81 307.13-28.95L307.13-28.95L307.13-28.95Q304.77-30.08 302.89-31.78L302.89-31.78L302.89-31.78Q301.02-33.48 299.88-35.94L299.88-35.94L299.88-35.94Q298.75-38.40 298.75-41.99L298.75-41.99L298.75-43.05L298.75-43.05Q298.75-45.90 299.82-48.40L299.82-48.40L299.82-48.40Q300.90-50.90 302.77-52.77L302.77-52.77L302.77-52.77Q304.65-54.65 307.17-55.72L307.17-55.72L307.17-55.72Q309.69-56.80 312.54-56.80L312.54-56.80L316.13-56.80L316.13-56.80Q318.98-56.80 321.48-55.72L321.48-55.72L321.48-55.72Q323.98-54.65 325.86-52.77L325.86-52.77L325.86-52.77Q327.73-50.90 328.81-48.40L328.81-48.40L328.81-48.40Q329.88-45.90 329.88-43.05L329.88-43.05L329.88-41.60L324.84-40.78L324.84-43.05L324.84-43.05Q324.84-44.92 324.14-46.54L324.14-46.54L324.14-46.54Q323.44-48.16 322.23-49.38L322.23-49.38L322.23-49.38Q321.02-50.59 319.39-51.29L319.39-51.29L319.39-51.29Q317.77-51.99 315.90-51.99L315.90-51.99L312.77-51.99L312.77-51.99Q310.90-51.99 309.28-51.29L309.28-51.29L309.28-51.29Q307.66-50.59 306.43-49.38L306.43-49.38L306.43-49.38Q305.20-48.16 304.49-46.54L304.49-46.54L304.49-46.54Q303.79-44.92 303.79-43.05L303.79-43.05L303.79-41.99L303.79-41.99Q303.79-39.30 304.92-37.46L304.92-37.46L304.92-37.46Q306.05-35.63 307.93-34.32L307.93-34.32L307.93-34.32Q309.80-33.01 312.17-32.05L312.17-32.05L312.17-32.05Q314.53-31.09 317.03-30.10L317.03-30.10L317.03-30.10Q319.53-29.10 321.89-27.91L321.89-27.91L321.89-27.91Q324.26-26.72 326.13-24.98L326.13-24.98L326.13-24.98Q328.01-23.24 329.14-20.74L329.14-20.74L329.14-20.74Q330.27-18.24 330.27-14.65L330.27-14.65" fill="#85a2b6" stroke="none" stroke-width="none" transform="translate(-273.4549865722656,19.724400939941404)" style="fill: rgb(133, 162, 182);"></path></g><g class="path" style="transform: translate(0px, 0px) rotate(0deg) scale(1, 1) skewX(0deg) skewY(0deg); opacity: 1; transform-origin: 79.395px 0.114401px; animation: 2.43902s linear -0.677792s infinite normal forwards running slide-ltr-d62914b1-e292-439b-b6ce-e129d12fcb70;"><path d="M366.21 0L364.61 0L361.95-4.06L361.95-4.06Q360.31-1.84 357.85-0.53L357.85-0.53L357.85-0.53Q355.39 0.78 352.46 0.78L352.46 0.78L351.25 0.78L351.25 0.78Q348.83 0.78 346.68-0.14L346.68-0.14L346.68-0.14Q344.53-1.05 342.93-2.66L342.93-2.66L342.93-2.66Q341.33-4.26 340.41-6.41L340.41-6.41L340.41-6.41Q339.49-8.55 339.49-10.98L339.49-10.98L339.49-40L344.30-40L344.30-10.70L344.30-10.70Q344.30-9.26 344.84-7.99L344.84-7.99L344.84-7.99Q345.39-6.72 346.33-5.78L346.33-5.78L346.33-5.78Q347.27-4.84 348.54-4.30L348.54-4.30L348.54-4.30Q349.80-3.75 351.25-3.75L351.25-3.75L354.45-3.75L354.45-3.75Q355.90-3.75 357.17-4.30L357.17-4.30L357.17-4.30Q358.44-4.84 359.38-5.78L359.38-5.78L359.38-5.78Q360.31-6.72 360.86-7.99L360.86-7.99L360.86-7.99Q361.41-9.26 361.41-10.70L361.41-10.70L361.41-40L366.21-40L366.21 0" fill="#85a2b6" stroke="none" stroke-width="none" transform="translate(-273.4549865722656,19.724400939941404)" style="fill: rgb(133, 162, 182);"></path></g><g class="path" style="transform: translate(0px, 0px) rotate(0deg) scale(1, 1) skewX(0deg) skewY(0deg); opacity: 1; transform-origin: 120.995px -0.275599px; animation: 2.43902s linear -0.593068s infinite normal forwards running slide-ltr-d62914b1-e292-439b-b6ce-e129d12fcb70;"><path d="M405.74 0L399.49 0L383.16-20L399.49-40L405.74-40L389.02-20L405.74 0" fill="#85a2b6" stroke="none" stroke-width="none" transform="translate(-273.4549865722656,19.724400939941404)" style="fill: rgb(133, 162, 182);"></path></g><g class="path" style="transform: translate(0px, 0px) rotate(0deg) scale(1, 1) skewX(0deg) skewY(0deg); opacity: 1; transform-origin: 106.37px -8.2856px; animation: 2.43902s linear -0.508344s infinite normal forwards running slide-ltr-d62914b1-e292-439b-b6ce-e129d12fcb70;"><path d="M382.23 0L377.42 0L377.42-56.02L382.23-56.02L382.23 0" fill="#85a2b6" stroke="none" stroke-width="none" transform="translate(-273.4549865722656,19.724400939941404)" style="fill: rgb(133, 162, 182);"></path></g><g class="path" style="transform: translate(0px, 0px) rotate(0deg) scale(1, 1) skewX(0deg) skewY(0deg); opacity: 1; transform-origin: 146.975px -0.665598px; animation: 2.43902s linear -0.42362s infinite normal forwards running slide-ltr-d62914b1-e292-439b-b6ce-e129d12fcb70;"><path d="M428.71-35.43L423.91-35.43L423.91-35.43Q422.46-35.43 421.19-34.88L421.19-34.88L421.19-34.88Q419.92-34.34 418.98-33.40L418.98-33.40L418.98-33.40Q418.05-32.46 417.50-31.19L417.50-31.19L417.50-31.19Q416.95-29.92 416.95-28.48L416.95-28.48L416.95 0L412.15 0L412.15-40L413.75-40L416.37-35.94L416.37-35.94Q418.01-38.16 420.49-39.47L420.49-39.47L420.49-39.47Q422.97-40.78 425.90-40.78L425.90-40.78L428.71-40.78L428.71-35.43" fill="#85a2b6" stroke="none" stroke-width="none" transform="translate(-273.4549865722656,19.724400939941404)" style="fill: rgb(133, 162, 182);"></path></g><g class="path" style="transform: translate(0px, 0px) rotate(0deg) scale(1, 1) skewX(0deg) skewY(0deg); opacity: 1; transform-origin: 165.665px -33.0906px; animation: 2.43902s linear -0.338896s infinite normal forwards running slide-ltr-d62914b1-e292-439b-b6ce-e129d12fcb70;"><path d="M441.91-49.61L436.33-49.61L436.33-56.02L441.91-56.02L441.91-49.61" fill="#85a2b6" stroke="none" stroke-width="none" transform="translate(-273.4549865722656,19.724400939941404)" style="fill: rgb(133, 162, 182);"></path></g><g class="path" style="transform: translate(0px, 0px) rotate(0deg) scale(1, 1) skewX(0deg) skewY(0deg); opacity: 1; transform-origin: 165.665px -0.275599px; animation: 2.43902s linear -0.254172s infinite normal forwards running slide-ltr-d62914b1-e292-439b-b6ce-e129d12fcb70;"><path d="M441.52 0L436.72 0L436.72-40L441.52-40L441.52 0" fill="#85a2b6" stroke="none" stroke-width="none" transform="translate(-273.4549865722656,19.724400939941404)" style="fill: rgb(133, 162, 182);"></path></g><g class="path" style="transform: translate(0px, 0px) rotate(0deg) scale(1, 1) skewX(0deg) skewY(0deg); opacity: 1; transform-origin: 193.025px -0.275599px; animation: 2.43902s linear -0.169448s infinite normal forwards running slide-ltr-d62914b1-e292-439b-b6ce-e129d12fcb70;"><path d="M480.23-10.16L480.23-10.16L480.23-10.16Q480.23-7.73 479.26-5.72L479.26-5.72L479.26-5.72Q478.28-3.71 476.60-2.27L476.60-2.27L476.60-2.27Q474.92-0.82 472.71-0.02L472.71-0.02L472.71-0.02Q470.51 0.78 468.09 0.78L468.09 0.78L464.88 0.78L464.88 0.78Q462.46 0.78 460.25-0.14L460.25-0.14L460.25-0.14Q458.05-1.05 456.39-2.66L456.39-2.66L456.39-2.66Q454.73-4.26 453.73-6.41L453.73-6.41L453.73-6.41Q452.73-8.55 452.73-10.98L452.73-10.98L452.73-12.58L457.54-13.36L457.54-10.70L457.54-10.70Q457.54-9.26 458.14-7.99L458.14-7.99L458.14-7.99Q458.75-6.72 459.77-5.78L459.77-5.78L459.77-5.78Q460.78-4.84 462.11-4.30L462.11-4.30L462.11-4.30Q463.44-3.75 464.88-3.75L464.88-3.75L468.09-3.75L468.09-3.75Q469.53-3.75 470.86-4.18L470.86-4.18L470.86-4.18Q472.19-4.61 473.22-5.41L473.22-5.41L473.22-5.41Q474.26-6.21 474.86-7.34L474.86-7.34L474.86-7.34Q475.47-8.48 475.47-9.92L475.47-9.92L475.47-9.92Q475.47-12.07 474.53-13.44L474.53-13.44L474.53-13.44Q473.59-14.80 472.05-15.72L472.05-15.72L472.05-15.72Q470.51-16.64 468.54-17.25L468.54-17.25L468.54-17.25Q466.56-17.85 464.49-18.46L464.49-18.46L464.49-18.46Q462.42-19.06 460.45-19.84L460.45-19.84L460.45-19.84Q458.48-20.63 456.93-21.89L456.93-21.89L456.93-21.89Q455.39-23.16 454.45-25.08L454.45-25.08L454.45-25.08Q453.52-26.99 453.52-29.84L453.52-29.84L453.52-29.84Q453.52-32.27 454.45-34.28L454.45-34.28L454.45-34.28Q455.39-36.29 456.99-37.73L456.99-37.73L456.99-37.73Q458.59-39.18 460.72-39.98L460.72-39.98L460.72-39.98Q462.85-40.78 465.27-40.78L465.27-40.78L468.09-40.78L468.09-40.78Q470.51-40.78 472.66-39.86L472.66-39.86L472.66-39.86Q474.80-38.95 476.41-37.34L476.41-37.34L476.41-37.34Q478.01-35.74 478.93-33.59L478.93-33.59L478.93-33.59Q479.84-31.45 479.84-29.02L479.84-29.02L479.84-28.87L475.04-28.09L475.04-29.30L475.04-29.30Q475.04-30.74 474.49-32.01L474.49-32.01L474.49-32.01Q473.95-33.28 473.01-34.22L473.01-34.22L473.01-34.22Q472.07-35.16 470.80-35.70L470.80-35.70L470.80-35.70Q469.53-36.25 468.09-36.25L468.09-36.25L465.27-36.25L465.27-36.25Q463.83-36.25 462.56-35.82L462.56-35.82L462.56-35.82Q461.29-35.39 460.35-34.59L460.35-34.59L460.35-34.59Q459.41-33.79 458.87-32.66L458.87-32.66L458.87-32.66Q458.32-31.52 458.32-30.08L458.32-30.08L458.32-30.08Q458.32-28.01 459.26-26.70L459.26-26.70L459.26-26.70Q460.20-25.39 461.74-24.49L461.74-24.49L461.74-24.49Q463.28-23.59 465.25-22.99L465.25-22.99L465.25-22.99Q467.23-22.38 469.28-21.74L469.28-21.74L469.28-21.74Q471.33-21.09 473.30-20.27L473.30-20.27L473.30-20.27Q475.27-19.45 476.82-18.16L476.82-18.16L476.82-18.16Q478.36-16.88 479.30-14.94L479.30-14.94L479.30-14.94Q480.23-13.01 480.23-10.16" fill="#85a2b6" stroke="none" stroke-width="none" transform="translate(-273.4549865722656,19.724400939941404)" style="fill: rgb(133, 162, 182);"></path></g><g class="path" style="transform: translate(0px, 0px) rotate(0deg) scale(1, 1) skewX(0deg) skewY(0deg); opacity: 1; transform-origin: 229.355px -0.665598px; animation: 2.43902s linear -0.084724s infinite normal forwards running slide-ltr-d62914b1-e292-439b-b6ce-e129d12fcb70;"><path d="M516.17 0L511.37 0L511.37-29.30L511.37-29.30Q511.37-30.74 510.82-32.01L510.82-32.01L510.82-32.01Q510.27-33.28 509.34-34.22L509.34-34.22L509.34-34.22Q508.40-35.16 507.13-35.70L507.13-35.70L507.13-35.70Q505.86-36.25 504.41-36.25L504.41-36.25L501.21-36.25L501.21-36.25Q499.77-36.25 498.50-35.70L498.50-35.70L498.50-35.70Q497.23-35.16 496.29-34.22L496.29-34.22L496.29-34.22Q495.35-33.28 494.80-32.01L494.80-32.01L494.80-32.01Q494.26-30.74 494.26-29.30L494.26-29.30L494.26 0L489.45 0L489.45-40L491.05-40L493.67-35.94L493.67-35.94Q495.31-38.16 497.79-39.47L497.79-39.47L497.79-39.47Q500.27-40.78 503.20-40.78L503.20-40.78L504.41-40.78L504.41-40.78Q506.84-40.78 508.98-39.86L508.98-39.86L508.98-39.86Q511.13-38.95 512.73-37.34L512.73-37.34L512.73-37.34Q514.34-35.74 515.25-33.59L515.25-33.59L515.25-33.59Q516.17-31.45 516.17-29.02L516.17-29.02L516.17 0" fill="#85a2b6" stroke="none" stroke-width="none" transform="translate(-273.4549865722656,19.724400939941404)" style="fill: rgb(133, 162, 182);"></path></g><g class="path" style="transform: translate(0px, 0px) rotate(0deg) scale(1, 1) skewX(0deg) skewY(0deg); opacity: 1; transform-origin: 265.685px -0.275599px; animation: 2.43902s linear 0s infinite normal forwards running slide-ltr-d62914b1-e292-439b-b6ce-e129d12fcb70;"><path d="M552.50-10.98L552.50-10.98L552.50-10.98Q552.50-8.55 551.58-6.41L551.58-6.41L551.58-6.41Q550.66-4.26 549.06-2.66L549.06-2.66L549.06-2.66Q547.46-1.05 545.31-0.14L545.31-0.14L545.31-0.14Q543.16 0.78 540.74 0.78L540.74 0.78L537.54 0.78L537.54 0.78Q535.12 0.78 532.97-0.14L532.97-0.14L532.97-0.14Q530.82-1.05 529.22-2.66L529.22-2.66L529.22-2.66Q527.62-4.26 526.70-6.41L526.70-6.41L526.70-6.41Q525.78-8.55 525.78-10.98L525.78-10.98L525.78-29.02L525.78-29.02Q525.78-31.45 526.70-33.59L526.70-33.59L526.70-33.59Q527.62-35.74 529.22-37.34L529.22-37.34L529.22-37.34Q530.82-38.95 532.97-39.86L532.97-39.86L532.97-39.86Q535.12-40.78 537.54-40.78L537.54-40.78L540.74-40.78L540.74-40.78Q543.16-40.78 545.31-39.86L545.31-39.86L545.31-39.86Q547.46-38.95 549.06-37.34L549.06-37.34L549.06-37.34Q550.66-35.74 551.58-33.59L551.58-33.59L551.58-33.59Q552.50-31.45 552.50-29.02L552.50-29.02L552.50-10.98zM547.70-10.70L547.70-29.30L547.70-29.30Q547.70-30.74 547.15-32.01L547.15-32.01L547.15-32.01Q546.60-33.28 545.66-34.22L545.66-34.22L545.66-34.22Q544.73-35.16 543.46-35.70L543.46-35.70L543.46-35.70Q542.19-36.25 540.74-36.25L540.74-36.25L537.54-36.25L537.54-36.25Q536.09-36.25 534.82-35.70L534.82-35.70L534.82-35.70Q533.55-35.16 532.62-34.22L532.62-34.22L532.62-34.22Q531.68-33.28 531.13-32.01L531.13-32.01L531.13-32.01Q530.59-30.74 530.59-29.30L530.59-29.30L530.59-10.70L530.59-10.70Q530.59-9.26 531.13-7.99L531.13-7.99L531.13-7.99Q531.68-6.72 532.62-5.78L532.62-5.78L532.62-5.78Q533.55-4.84 534.82-4.30L534.82-4.30L534.82-4.30Q536.09-3.75 537.54-3.75L537.54-3.75L540.74-3.75L540.74-3.75Q542.19-3.75 543.46-4.30L543.46-4.30L543.46-4.30Q544.73-4.84 545.66-5.78L545.66-5.78L545.66-5.78Q546.60-6.72 547.15-7.99L547.15-7.99L547.15-7.99Q547.70-9.26 547.70-10.70L547.70-10.70" fill="#85a2b6" stroke="none" stroke-width="none" transform="translate(-273.4549865722656,19.724400939941404)" style="fill: rgb(133, 162, 182);"></path></g></g>
</g>
</g>
<style id="slide-ltr-d62914b1-e292-439b-b6ce-e129d12fcb70" data-anikit="">@keyframes slide-ltr-d62914b1-e292-439b-b6ce-e129d12fcb70
{
  0% {
    animation-timing-function: cubic-bezier(0.4652,0.1051,0.774,0.6426);
    transform: translate(0px,0px) rotate(0deg) scale(1,1) skewX(0deg) skewY(0deg);
    opacity: 1;
  }
  22.5% {
    animation-timing-function: cubic-bezier(0.4142,0.3131,0.7623,0.6513);
    transform: translate(47.8px,0px) rotate(0deg) scale(1,1) skewX(0deg) skewY(0deg);
    opacity: 1;
  }
  45% {
    animation-timing-function: cubic-bezier(0.3615,0.331,0.9646,1.3461);
    transform: translate(147.8px,0px) rotate(0deg) scale(1,1) skewX(0deg) skewY(0deg);
    opacity: 1;
  }
  47.5% {
    animation-timing-function: cubic-bezier(0.7006,0.3332,0.6667,0.6667);
    transform: translate(165.6px,0px) rotate(0deg) scale(1,1) skewX(0deg) skewY(0deg);
    opacity: 0;
  }
  50% {
    animation-timing-function: cubic-bezier(0.1604,0.3176,-0.0218,0.6965);
    transform: translate(-200px,0px) rotate(0deg) scale(1,1) skewX(0deg) skewY(0deg);
    opacity: 0;
  }
  51% {
    animation-timing-function: cubic-bezier(0.1983,0.3529,0.5263,0.6945);
    transform: translate(-179.8px,0px) rotate(0deg) scale(1,1) skewX(0deg) skewY(0deg);
    opacity: 0;
  }
  80.4% {
    animation-timing-function: cubic-bezier(0.2342,0.3708,0.5422,0.9065);
    transform: translate(-38.4px,0px) rotate(0deg) scale(1,1) skewX(0deg) skewY(0deg);
    opacity: 1;
  }
  100% {
    transform: translate(0px,0px) rotate(0deg) scale(1,1) skewX(0deg) skewY(0deg);
    opacity: 1;
  }
}</style></svg>
