<?xml version="1.0" encoding="utf-8"?>
<svg xmlns="http://www.w3.org/2000/svg" style="margin: auto; display: block; shape-rendering: auto; background: none;" width="280" height="250" preserveAspectRatio="xMidYMid">
<style type="text/css">
  text {
    text-anchor: middle; font-size: 80px; opacity: 0;
  }
</style>
<g style="transform-origin:140px 125px;transform:scale(1)">
<g transform="translate(140,125)">
  <g transform="translate(0,0)"><g class="path" style="transform: matrix(0.01, 0, 0, 0.01, 0, 0); transform-origin: -60.52px -1.76544px; animation: 2.7027s linear 0s 1 normal forwards running bounce-in-6efefdb6-64aa-45be-93d5-a253e26e529c;"><path d="M16.80-10.88L16.80-10.88L16.80-10.88Q16.80 1.12 24.56 4.96L24.56 4.96L24.56 4.96Q26.48 5.20 29.64 5.20L29.64 5.20L29.64 5.20Q32.80 5.20 36.32 4L36.32 4L36.32 4Q39.84 2.80 41.76 1.04L41.76 1.04L41.76 1.04Q45.84-2.72 46.88-5.44L46.88-5.44L47.28-6.64L48.88-6L48.88-6Q48.32-4.16 46.72-1.76L46.72-1.76L46.72-1.76Q45.12 0.64 43.08 2.32L43.08 2.32L43.08 2.32Q41.04 4 37.16 5.40L37.16 5.40L37.16 5.40Q33.28 6.80 28.56 6.80L28.56 6.80L28.56 6.80Q18.48 6.80 12.92 0.96L12.92 0.96L12.92 0.96Q7.36-4.88 7.36-15.52L7.36-15.52L7.36-15.52Q7.36-30 16.72-39.36L16.72-39.36L16.72-39.36Q26.08-48.72 41.28-48.72L41.28-48.72L41.28-48.72Q48.32-48.72 51.44-46.20L51.44-46.20L51.44-46.20Q54.56-43.68 54.56-38.32L54.56-38.32L54.56-38.32Q54.56-34.72 51.04-29.44L51.04-29.44L51.04-29.44Q47.84-24.32 47.84-21.44L47.84-21.44L46.08-21.44L46.08-21.44Q46.08-23.04 46.72-24.88L46.72-24.88L46.72-24.88Q47.36-26.72 47.84-27.52L47.84-27.52L47.84-27.52Q48.32-28.32 49.60-30.40L49.60-30.40L49.60-30.40Q52.72-35.12 52.72-38.16L52.72-38.16L52.72-38.16Q52.72-44.56 47.44-46.24L47.44-46.24L47.44-46.24Q44.96-47.04 42.24-47.04L42.24-47.04L42.24-47.04Q39.52-47.04 36.48-46.72L36.48-46.72L36.48-46.72Q33.68-45.84 31.16-44.44L31.16-44.44L31.16-44.44Q28.64-43.04 25.92-40.20L25.92-40.20L25.92-40.20Q23.20-37.36 21.28-33.60L21.28-33.60L21.28-33.60Q19.36-29.84 18.08-23.96L18.08-23.96L18.08-23.96Q16.80-18.08 16.80-10.88" fill="#93dbe9" stroke="none" stroke-width="none" transform="translate(-91.48004150390625,19.194559814453118)" style="fill: rgb(147, 219, 233);"></path></g><g class="path" style="transform: matrix(0.01, 0, 0, 0.01, 0, 0); transform-origin: -17.96px 3.99456px; animation: 2.7027s linear 0.356757s 1 normal forwards running bounce-in-6efefdb6-64aa-45be-93d5-a253e26e529c;"><path d="M84.48 0.72L84.48 0.72L84.48 0.72Q77.44 0.72 76.80-5.44L76.80-5.44L76.80-5.44Q73.28 0.72 67.92 0.72L67.92 0.72L67.92 0.72Q62.56 0.72 59.40-2.52L59.40-2.52L59.40-2.52Q56.24-5.76 56.24-11.60L56.24-11.60L56.24-11.60Q56.24-20.72 60.72-25.92L60.72-25.92L60.72-25.92Q65.20-31.12 72.32-31.12L72.32-31.12L72.32-31.12Q78.16-31.12 80.08-25.60L80.08-25.60L80.08-25.60Q80.48-28 80.96-30.40L80.96-30.40L80.96-30.40Q86.88-30.40 89.76-30.88L89.76-30.88L90.80-31.12L85.28-0.88L85.28-0.88Q87.68-1.12 89.28-3.12L89.28-3.12L90.48-2.16L90.48-2.16Q88.08 0.72 84.48 0.72zM65.28-7.52L65.28-7.52Q65.28-3.92 66.20-2.52L66.20-2.52L66.20-2.52Q67.12-1.12 69.04-1.12L69.04-1.12L69.04-1.12Q70.96-1.12 72.96-3.20L72.96-3.20L72.96-3.20Q75.60-5.92 77.20-10.08L77.20-10.08L77.20-10.08Q77.44-11.12 78.12-15.08L78.12-15.08L78.12-15.08Q78.80-19.04 79.28-21.60L79.28-21.60L79.28-21.60Q79.04-24.64 77.60-26.88L77.60-26.88L77.60-26.88Q76.16-29.12 74-29.12L74-29.12L74-29.12Q70.08-29.12 67.68-22.12L67.68-22.12L67.68-22.12Q65.28-15.12 65.28-7.52L65.28-7.52" fill="#93dbe9" stroke="none" stroke-width="none" transform="translate(-91.48004150390625,19.194559814453118)" style="fill: rgb(104, 156, 197);"></path></g><g class="path" style="transform: matrix(0.01, 0, 0, 0.01, 0, 0); transform-origin: 16.04px -1.92544px; animation: 2.7027s linear 0.713514s 1 normal forwards running bounce-in-6efefdb6-64aa-45be-93d5-a253e26e529c;"><path d="M95.84-30.40L99.92-30.40L102.08-42.24L102.08-42.24Q108.00-42.24 110.88-42.72L110.88-42.72L111.92-42.96L111.92-42.96Q110.80-37.36 109.44-30.40L109.44-30.40L119.36-30.40L119.20-28.96L109.20-28.96L109.20-28.96Q105.20-8.32 105.20-4.08L105.20-4.08L105.20-4.08Q105.20-1.52 107.92-1.52L107.92-1.52L107.92-1.52Q110.64-1.52 112.88-4.96L112.88-4.96L112.88-4.96Q115.12-8.40 116.08-12.40L116.08-12.40L117.52-11.92L117.52-11.92Q114.56 0.72 105.28 0.72L105.28 0.72L105.28 0.72Q101.44 0.72 98.88-1.40L98.88-1.40L98.88-1.40Q96.32-3.52 96.32-7.32L96.32-7.32L96.32-7.32Q96.32-11.12 99.60-28.96L99.60-28.96L95.68-28.96L95.84-30.40" fill="#93dbe9" stroke="none" stroke-width="none" transform="translate(-91.48004150390625,19.194559814453118)" style="fill: rgb(94, 111, 163);"></path></g><g class="path" style="transform: matrix(0.01, 0, 0, 0.01, 0, 0); transform-origin: 46.88px 3.99456px; animation: 2.7027s linear 1.07027s 1 normal forwards running bounce-in-6efefdb6-64aa-45be-93d5-a253e26e529c;"><path d="M125.68-29.52L125.68-29.52L125.68-29.52Q123.76-29.52 121.68-27.28L121.68-27.28L120.48-28.24L120.48-28.24Q121.04-29.36 122.96-30.24L122.96-30.24L122.96-30.24Q124.88-31.12 127.20-31.12L127.20-31.12L127.20-31.12Q134.48-31.12 134.48-24.56L134.48-24.56L134.48-24.56Q134.48-21.76 133.04-14.56L133.04-14.56L133.04-14.56Q131.60-7.36 131.60-5.12L131.60-5.12L131.60-5.12Q131.60-1.68 134.88-1.68L134.88-1.68L134.88-1.68Q137.20-1.68 139.40-4.40L139.40-4.40L139.40-4.40Q141.60-7.12 143.20-11.92L143.20-11.92L146.56-30.40L146.56-30.40Q152.48-30.40 155.20-30.88L155.20-30.88L156.24-31.12L150.88-0.88L150.88-0.88Q153.28-1.12 154.88-3.12L154.88-3.12L156.08-2.16L156.08-2.16Q153.68 0.72 150.08 0.72L150.08 0.72L150.08 0.72Q146.48 0.72 144.48-1.04L144.48-1.04L144.48-1.04Q142.48-2.80 142.40-6L142.40-6L142.40-6Q139.04 0.72 132.48 0.72L132.48 0.72L132.48 0.72Q127.76 0.72 125.12-1.96L125.12-1.96L125.12-1.96Q122.48-4.64 122.48-9.36L122.48-9.36L122.48-9.36Q122.48-11.84 124.00-18.92L124.00-18.92L124.00-18.92Q125.52-26 125.68-29.52" fill="#93dbe9" stroke="none" stroke-width="none" transform="translate(-91.48004150390625,19.194559814453118)" style="fill: rgb(59, 67, 104);"></path></g><g class="path" style="transform: matrix(0.01, 0, 0, 0.01, 0, 0); transform-origin: 84.2px 3.63456px; animation: 2.7027s linear 1.42703s 1 normal forwards running bounce-in-6efefdb6-64aa-45be-93d5-a253e26e529c;"><path d="M162.32-27.28L161.12-28.24L161.12-28.24Q163.52-31.12 167.16-31.12L167.16-31.12L167.16-31.12Q170.80-31.12 172.80-29.28L172.80-29.28L172.80-29.28Q174.80-27.44 174.80-24.08L174.80-24.08L174.80-23.60L174.80-23.60Q178.40-31.12 184.16-31.12L184.16-31.12L184.16-31.12Q190.32-31.12 190.32-24.72L190.32-24.72L190.32-24.72Q190.32-22.08 188.56-19.12L188.56-19.12L188.56-19.12Q186.80-16.16 185.04-13.48L185.04-13.48L185.04-13.48Q183.28-10.80 183.28-8.72L183.28-8.72L181.36-8.72L181.36-8.72Q181.36-11.68 184.80-16.72L184.80-16.72L184.80-16.72Q188.24-21.76 188.24-24.52L188.24-24.52L188.24-24.52Q188.24-27.28 187.16-28.28L187.16-28.28L187.16-28.28Q186.08-29.28 183.96-29.28L183.96-29.28L183.96-29.28Q181.84-29.28 179.80-27.44L179.80-27.44L179.80-27.44Q177.76-25.60 176.40-22.80L176.40-22.80L176.40-22.80Q174.24-18.64 173.52-16L173.52-16L173.52-15.92L170.64 0L161.04 0L166.32-29.52L166.32-29.52Q163.92-29.28 162.32-27.28L162.32-27.28" fill="#93dbe9" stroke="none" stroke-width="none" transform="translate(-91.48004150390625,19.194559814453118)" style="fill: rgb(25, 29, 58);"></path></g></g>
</g>
</g>
<style id="bounce-in-6efefdb6-64aa-45be-93d5-a253e26e529c" data-anikit="">@keyframes bounce-in-6efefdb6-64aa-45be-93d5-a253e26e529c
{
  0% {
    animation-timing-function: cubic-bezier(0.0383,0.3388,0.0421,0.6652);
    transform: matrix(0.01,0,0,0.01,0,0);
    opacity: 1;
  }
  4.7% {
    animation-timing-function: cubic-bezier(0.3296,0.3336,0.5772,0.6672);
    transform: matrix(0.556,0,0,0.556,0,0);
    opacity: 1;
  }
  8.4% {
    animation-timing-function: cubic-bezier(0.0781,0.1617,0.0874,0.9301);
    transform: matrix(0.979,0,0,0.979,0,0);
    opacity: 1;
  }
  12.4% {
    animation-timing-function: cubic-bezier(0.8341,0.1496,0.8634,0.7673);
    transform: matrix(1.153,0,0,1.153,0,0);
    opacity: 1;
  }
  16.3% {
    animation-timing-function: cubic-bezier(0.3264,0.3332,0.5758,0.6695);
    transform: matrix(1.008,0,0,1.008,0,0);
    opacity: 1;
  }
  21.2% {
    animation-timing-function: cubic-bezier(0.0921,0.1883,0.3277,1);
    transform: matrix(0.704,0,0,0.704,0,0);
    opacity: 1;
  }
  24.5% {
    animation-timing-function: cubic-bezier(0.6905,0.0944,0.8759,0.7624);
    transform: matrix(0.626,0,0,0.626,0,0);
    opacity: 1;
  }
  27.7% {
    animation-timing-function: cubic-bezier(0.3688,0.332,0.624,0.6684);
    transform: matrix(0.704,0,0,0.704,0,0);
    opacity: 1;
  }
  32.6% {
    animation-timing-function: cubic-bezier(0.1368,0.2364,0.2451,0.9049);
    transform: matrix(0.958,0,0,0.958,0,0);
    opacity: 1;
  }
  37.4% {
    animation-timing-function: cubic-bezier(0.5936,0.0846,0.3495,1);
    transform: matrix(1.085,0,0,1.085,0,0);
    opacity: 1;
  }
  49.5% {
    animation-timing-function: cubic-bezier(0.5522,0.0981,0.3807,1);
    transform: matrix(0.802,0,0,0.802,0,0);
    opacity: 1;
  }
  62.4% {
    animation-timing-function: cubic-bezier(0.4497,0.1349,0.4911,1);
    transform: matrix(1.044,0,0,1.044,0,0);
    opacity: 1;
  }
  74.1% {
    animation-timing-function: cubic-bezier(0.429,0,0.5239,1);
    transform: matrix(0.914,0,0,0.914,0,0);
    opacity: 1;
  }
  87% {
    animation-timing-function: cubic-bezier(0.3501,0,0.6422,1);
    transform: matrix(1.013,0,0,1.013,0,0);
    opacity: 1;
  }
  95.8% {
    animation-timing-function: cubic-bezier(0.3653,0,0.6776,1);
    transform: matrix(0.992,0,0,0.992,0,0);
    opacity: 1;
  }
  100% {
    transform: matrix(1,0,0,1,0,0);
    opacity: 1;
  }
}</style></svg>
